<svg width="40" height="42" viewBox="0 0 40 42" fill="none" xmlns="http://www.w3.org/2000/svg">
<g filter="url(#filter0_d_98_195)">
<path d="M19.06 0.587295L11.8647 2.13795C11.6068 2.19295 11.3755 2.3347 11.2094 2.53956C11.0433 2.74441 10.9525 3.00001 10.952 3.26373V15.6468C10.427 15.4645 9.8751 15.3717 9.31934 15.3724C6.80626 15.3724 4.76892 17.2177 4.76892 19.4941C4.76892 21.7704 6.80626 23.6158 9.31941 23.6158C11.0465 23.6158 12.7739 22.677 13.4919 21.0764C14.1159 19.6854 13.8698 18.0132 13.8698 16.5213V6.62223L23.7789 4.32072C23.7448 1.87246 21.4653 0.0689939 19.0601 0.587361L19.06 0.587295Z" fill="#FACD66"/>
<path d="M19.0565 11.998V25.2556C19.0563 25.2872 19.0488 25.3184 19.0345 25.3466C19.0202 25.3748 18.9996 25.3993 18.9742 25.4182C18.9488 25.437 18.9194 25.4497 18.8882 25.4552C18.8571 25.4607 18.8251 25.4589 18.7948 25.4499C18.349 25.3225 17.8875 25.2581 17.4238 25.2585C14.9107 25.2585 12.8734 27.1039 12.8734 29.3802C12.8734 31.6566 14.9107 33.502 17.4238 33.502C19.1509 33.502 20.8784 32.5632 21.5964 30.9626C22.2204 29.5716 21.9743 27.8993 21.9743 26.4075V15.6245C21.9744 15.5481 22.0004 15.474 22.048 15.4143C22.0957 15.3545 22.1621 15.3127 22.2366 15.2956L31.8834 13.055C31.9331 13.0433 31.9848 13.043 32.0346 13.0541C32.0844 13.0651 32.1311 13.0873 32.1712 13.1189C32.2112 13.1506 32.2436 13.1908 32.266 13.2367C32.2883 13.2826 32.3 13.3329 32.3002 13.384V24.2421C32.3 24.2737 32.2925 24.3048 32.2782 24.3331C32.2639 24.3613 32.2433 24.3858 32.2179 24.4046C32.1925 24.4235 32.1631 24.4362 32.1319 24.4417C32.1008 24.4472 32.0688 24.4454 32.0385 24.4364C31.5926 24.309 31.1312 24.2446 30.6675 24.245C28.1544 24.245 26.1171 26.0904 26.1171 28.3667C26.1171 30.6431 28.1544 32.4884 30.6674 32.4884C32.1883 32.4884 33.7005 31.7011 34.5534 30.413C35.3799 29.1648 35.2183 27.8537 35.2179 26.4434C35.2171 23.9282 35.2171 21.413 35.2179 18.8979V8.84266C35.2174 8.69091 35.1829 8.54119 35.1171 8.40447C35.0512 8.26776 34.9556 8.14751 34.8372 8.05253C34.7189 7.95755 34.5808 7.89026 34.433 7.85557C34.2853 7.82089 34.1317 7.81969 33.9834 7.85208L19.9692 10.8722C19.7113 10.9272 19.48 11.069 19.3139 11.2738C19.1478 11.4787 19.057 11.7343 19.0565 11.998Z" fill="#A4C7C6"/>
<path d="M30.308 13.384C30.3078 13.3329 30.2961 13.2826 30.2738 13.2367C30.2515 13.1908 30.2191 13.1506 30.179 13.1189C30.1389 13.0873 30.0923 13.0651 30.0424 13.0541C29.9926 13.043 29.9409 13.0433 29.8912 13.055L20.2444 15.2956C20.17 15.3127 20.1035 15.3545 20.0559 15.4143C20.0082 15.474 19.9822 15.5481 19.9821 15.6245V26.4075C19.9821 27.8993 20.2282 29.5716 19.6043 30.9626C19.0241 32.256 17.7846 33.1169 16.4189 33.3998C16.7496 33.4676 17.0863 33.5018 17.4239 33.502C19.151 33.502 20.8785 32.5632 21.5964 30.9626C22.2204 29.5716 21.9743 27.8993 21.9743 26.4075V15.6245C21.9744 15.5481 22.0004 15.474 22.0481 15.4143C22.0957 15.3545 22.1621 15.3127 22.2366 15.2956L30.308 13.4209V13.384ZM17.0623 25.2727C16.8491 25.2878 16.637 25.3165 16.4275 25.3588C16.5545 25.3847 16.6799 25.4147 16.8026 25.4499C16.8315 25.4584 16.8619 25.4604 16.8916 25.4557C16.9213 25.451 16.9496 25.4398 16.9745 25.4228C16.9993 25.4058 17.0201 25.3836 17.0353 25.3576C17.0505 25.3316 17.0597 25.3026 17.0623 25.2726V25.2727ZM35.2179 26.4434C35.2171 23.9282 35.2171 21.413 35.2179 18.8979V8.84266C35.2174 8.69091 35.183 8.54119 35.1171 8.40447C35.0512 8.26776 34.9556 8.14751 34.8373 8.05253C34.7189 7.95755 34.5808 7.89026 34.4331 7.85557C34.2853 7.82089 34.1317 7.81969 33.9835 7.85208L32.8856 8.08868C32.9926 8.18298 33.0783 8.29901 33.1369 8.42902C33.1956 8.55902 33.2258 8.70004 33.2257 8.84266V26.4434C33.2262 27.8536 33.3877 29.1648 32.5612 30.413C31.8792 31.4207 30.8344 32.1263 29.6449 32.3826C29.9812 32.4528 30.3239 32.4883 30.6675 32.4884C32.1882 32.4884 33.7005 31.7011 34.5534 30.413C35.3799 29.1648 35.2184 27.8537 35.2179 26.4434ZM30.306 24.2591C30.0927 24.2742 29.8807 24.303 29.6712 24.3453C29.7982 24.3712 29.9235 24.4012 30.0463 24.4364C30.0752 24.4449 30.1056 24.4469 30.1353 24.4422C30.165 24.4375 30.1933 24.4263 30.2181 24.4093C30.243 24.3923 30.2637 24.3701 30.2789 24.3441C30.2941 24.3181 30.3033 24.2891 30.306 24.2591Z" fill="#9CBCBB"/>
</g>
<defs>
<filter id="filter0_d_98_195" x="-1" y="0" width="42" height="42" filterUnits="userSpaceOnUse" color-interpolation-filters="sRGB">
<feFlood flood-opacity="0" result="BackgroundImageFix"/>
<feColorMatrix in="SourceAlpha" type="matrix" values="0 0 0 0 0 0 0 0 0 0 0 0 0 0 0 0 0 0 127 0" result="hardAlpha"/>
<feOffset dy="4"/>
<feGaussianBlur stdDeviation="2"/>
<feComposite in2="hardAlpha" operator="out"/>
<feColorMatrix type="matrix" values="0 0 0 0 0 0 0 0 0 0 0 0 0 0 0 0 0 0 0.25 0"/>
<feBlend mode="normal" in2="BackgroundImageFix" result="effect1_dropShadow_98_195"/>
<feBlend mode="normal" in="SourceGraphic" in2="effect1_dropShadow_98_195" result="shape"/>
</filter>
</defs>
</svg>
